<?xml version="1.0" encoding="UTF-8" standalone="no"?>
<!-- Generator: Adobe Illustrator 23.0.1, SVG Export Plug-In . SVG Version: 6.00 Build 0)  -->

<svg
   version="1.1"
   id="Layer_1"
   x="0px"
   y="0px"
   viewBox="0 0 512 512"
   style="enable-background:new 0 0 512 512;"
   xml:space="preserve"
   sodipodi:docname="facebook.svg"
   inkscape:version="1.1.1 (3bf5ae0d25, 2021-09-20)"
   xmlns:inkscape="http://www.inkscape.org/namespaces/inkscape"
   xmlns:sodipodi="http://sodipodi.sourceforge.net/DTD/sodipodi-0.dtd"
   xmlns="http://www.w3.org/2000/svg"
   xmlns:svg="http://www.w3.org/2000/svg"><defs
   id="defs11" /><sodipodi:namedview
   id="namedview9"
   pagecolor="#505050"
   bordercolor="#eeeeee"
   borderopacity="1"
   inkscape:pageshadow="0"
   inkscape:pageopacity="0"
   inkscape:pagecheckerboard="0"
   showgrid="false"
   inkscape:zoom="1.625"
   inkscape:cx="255.69231"
   inkscape:cy="256.30769"
   inkscape:window-width="1920"
   inkscape:window-height="1017"
   inkscape:window-x="-8"
   inkscape:window-y="-8"
   inkscape:window-maximized="1"
   inkscape:current-layer="Layer_1" />
<style
   type="text/css"
   id="style2">
	.st0{fill-rule:evenodd;clip-rule:evenodd;fill:#010101;}
</style>
<title
   id="title4">01</title>
<path
   class="st0"
   d="M311,105.5h46.2c3.2,0,5.8-2.6,5.8-5.8V31.5c0-3.2-2.6-5.8-5.8-5.8h-78.1c-45.8,0-83,37.2-83,83v65.7h-41.3  c-3.2,0-5.8,2.6-5.8,5.8v68.2c0,3.2,2.6,5.8,5.8,5.8h41.3v3.6v222.7c0,3.2,2.6,5.8,5.8,5.8h82.7c3.2,0,5.8-2.6,5.8-5.8V254.2h60  c3,0,5.5-2.3,5.8-5.3l5.8-68.2c0.3-3.2-2.1-6-5.3-6.3c-0.2,0-0.3,0-0.5,0h-65.7V126C290.5,114.7,299.7,105.5,311,105.5z"
   id="path6" />
<path
   style="fill:#ffffff;stroke-width:0.615385"
   d="m 199.912,485.54364 c -0.72532,-0.2927 -1.76379,-1.16754 -2.30769,-1.94407 -0.89967,-1.28446 -0.98893,-11.70238 -0.98893,-115.42881 V 254.15385 h -20.98392 c -22.82339,0 -24.21622,-0.18661 -25.70004,-3.44323 -0.49801,-1.093 -0.70065,-11.77717 -0.70065,-36.94076 v -35.403 l 1.79882,-1.79881 1.79881,-1.79882 h 21.86393 21.86393 l 0.224,-39.23077 c 0.24298,-42.554115 0.16262,-41.459291 3.87865,-52.843027 4.4824,-13.731463 14.07566,-27.927525 24.94748,-36.917149 11.31935,-9.359682 22.63735,-14.871561 37.34807,-18.188566 5.77822,-1.302883 7.38566,-1.353324 50.39004,-1.581235 48.71451,-0.258174 47.19695,-0.362686 48.73748,3.356485 0.52421,1.265544 0.67155,11.275278 0.54822,37.243009 l -0.16866,35.512303 -1.40083,1.4014 -1.40081,1.4014 -26.90688,0.30769 -26.90687,0.30769 -3.47566,1.62952 c -4.42616,2.07513 -8.20431,5.85328 -10.27944,10.27943 l -1.62951,3.47567 -0.18386,26.92307 -0.18386,26.92308 h 33.82895 33.82895 l 1.89337,1.59316 c 1.47635,1.24227 1.89453,2.0894 1.89862,3.84616 0.003,1.23914 -1.26388,17.3453 -2.81503,35.79145 -3.02141,35.93027 -2.95816,35.56544 -6.48031,37.37554 -1.11418,0.5726 -8.95726,0.7624 -31.78683,0.76924 l -30.30769,0.009 V 367.7228 c 0,123.52712 0.21352,116.0642 -3.36743,117.69578 -1.92835,0.87862 -84.71178,0.99773 -86.87442,0.12499 z"
   id="path87" /></svg>
