<?xml version="1.0" encoding="UTF-8" standalone="no"?>
<!-- Generator: Adobe Illustrator 23.0.1, SVG Export Plug-In . SVG Version: 6.00 Build 0)  -->

<svg
   version="1.1"
   id="Layer_1"
   x="0px"
   y="0px"
   viewBox="0 0 512 512"
   style="enable-background:new 0 0 512 512;"
   xml:space="preserve"
   sodipodi:docname="instagram.svg"
   inkscape:version="1.1.1 (3bf5ae0d25, 2021-09-20)"
   xmlns:inkscape="http://www.inkscape.org/namespaces/inkscape"
   xmlns:sodipodi="http://sodipodi.sourceforge.net/DTD/sodipodi-0.dtd"
   xmlns="http://www.w3.org/2000/svg"
   xmlns:svg="http://www.w3.org/2000/svg"><defs
   id="defs17" /><sodipodi:namedview
   id="namedview15"
   pagecolor="#505050"
   bordercolor="#eeeeee"
   borderopacity="1"
   inkscape:pageshadow="0"
   inkscape:pageopacity="0"
   inkscape:pagecheckerboard="0"
   showgrid="false"
   inkscape:zoom="1.625"
   inkscape:cx="255.69231"
   inkscape:cy="207.07692"
   inkscape:window-width="1920"
   inkscape:window-height="1017"
   inkscape:window-x="-8"
   inkscape:window-y="-8"
   inkscape:window-maximized="1"
   inkscape:current-layer="Layer_1" />
<style
   type="text/css"
   id="style2">
	.st0{fill:#010101;}
</style>
<title
   id="title4">01</title>
<g
   id="g12">
	<path
   class="st0"
   d="M256.8,140.5c-65.5,0-118.6,53.1-118.6,118.6s53.1,118.6,118.6,118.6s118.6-53.1,118.6-118.6   C375.4,193.6,322.3,140.5,256.8,140.5z M256.8,335.1c-42,0-76-34-76-76s34-76,76-76s76,34,76,76   C332.8,301.1,298.8,335.1,256.8,335.1z"
   id="path6" />
	<path
   class="st0"
   d="M382.4,104.2C382.4,104.2,382.4,104.2,382.4,104.2c-15.6,0-28.2,12.7-28.2,28.2c0,15.6,12.7,28.2,28.2,28.2   c15.6,0,28.2-12.6,28.2-28.2C410.6,116.9,398,104.2,382.4,104.2z"
   id="path8" />
	<path
   class="st0"
   d="M351.5,15.8C351.5,15.8,351.5,15.8,351.5,15.8h-191c-79.9,0-144.7,64.8-144.7,144.7c0,0,0,0,0,0v191   c0,79.9,64.8,144.7,144.7,144.7c0,0,0,0,0,0h191c79.9,0,144.7-64.8,144.7-144.7c0,0,0,0,0,0v-191C496.2,80.6,431.4,15.8,351.5,15.8   z M450.9,351.5c0,54.9-44.5,99.4-99.4,99.4h-191c-54.9,0-99.4-44.5-99.4-99.4v-191c0-54.9,44.5-99.4,99.4-99.4h191   c54.9,0,99.4,44.5,99.4,99.4V351.5z"
   id="path10" />
</g>
<path
   style="fill:#ffffff;stroke:none;stroke-width:0.615385"
   d="M 148,495.36738 C 93.031655,490.3142 46.425392,455.30733 25.94872,403.69231 22.863222,395.91478 19.406815,383.39428 17.709389,373.84615 16.687595,368.09849 16.615385,360.32001 16.615385,256 c 0,-104.32001 0.07221,-112.09849 1.094004,-117.84615 C 25.759327,92.872431 51.3895,56.371146 90.730123,34.161164 104.97353,26.119968 122.54351,20.219544 140.61538,17.408496 147.21465,16.381991 155.00249,16.307692 256,16.307692 c 120.89257,0 112.84775,-0.265594 131.10712,4.328411 53.2133,13.388311 94.58741,56.764832 105.84785,110.970647 2.73603,13.17083 2.73734,13.23007 2.73734,124.39325 0,119.70598 0.21101,114.04418 -4.97591,133.51388 -4.72298,17.72824 -14.55009,37.13051 -26.19424,51.71689 -20.35438,25.4975 -50.4209,44.447 -80.93873,51.01184 -16.79331,3.61249 -8.53802,3.38001 -124.19881,3.49765 C 201,495.79965 150.87692,495.63185 148,495.36738 Z m 222.8623,-45.96692 c 19.71289,-4.34465 36.82528,-13.46509 50.46834,-26.89829 15.37275,-15.13626 24.73082,-33.16891 28.60674,-55.12418 1.07944,-6.11445 1.13954,-11.98918 1.13954,-111.37799 0,-99.38881 -0.0601,-105.26354 -1.13954,-111.37799 -3.85045,-21.81096 -13.13263,-39.78133 -28.39131,-54.965788 -13.79721,-13.730104 -32.7966,-23.6365 -52.3153,-27.277516 -5.85671,-1.09251 -11.35366,-1.147937 -113.84615,-1.147937 H 147.69231 l -6.46154,1.419434 c -44.598493,9.797144 -75.798191,44.532527 -79.978582,89.042107 -0.868281,9.24478 -0.868281,199.3706 0,208.61538 4.403072,46.88051 40.263152,84.13193 86.747812,90.11355 2.2,0.28309 51.90769,0.46374 110.46154,0.40146 106.10174,-0.11288 106.48161,-0.11768 112.40076,-1.42224 z"
   id="path56" /><path
   style="fill:#ffffff;stroke-width:0.615385"
   d="M 144.0167,494.69673 C 107.36634,489.85016 73.868741,471.83404 50.9876,444.66261 31.977179,422.08767 19.254813,392.15876 17.483819,365.84615 17.089376,359.9857 16.941567,317.18273 17.078993,248.61538 l 0.216459,-108 1.676672,-7.5981 C 22.482226,117.11069 30.025672,97.962191 37.676144,85.538462 45.464975,72.890046 56.978878,59.555588 68.033284,50.381309 87.227668,34.451498 108.33644,24.385807 134.01457,18.918219 l 9.37005,-1.995142 h 111.38461 c 120.53155,0 115.54172,-0.130742 129.53846,3.394121 21.29826,5.36364 37.46222,13.023648 54.43701,25.797398 7.21774,5.431448 19.3994,17.316931 24.95364,24.346942 17.22326,21.799477 28.75551,49.651412 30.78095,74.340112 0.84473,10.29665 0.8203,210.8862 -0.027,221.88813 -0.78703,10.21908 -2.32231,17.4597 -6.21485,29.31022 -5.15018,15.67926 -14.74085,33.45279 -24.71078,45.79425 -5.2286,6.47233 -16.34904,17.44162 -22.60357,22.29636 -16.51457,12.81854 -34.24796,21.74251 -52.94826,26.64515 -17.19358,4.50762 -7.86498,4.19362 -129.82097,4.36976 -64.53902,0.0932 -111.61602,-0.0754 -114.13715,-0.40879 z m 227.84342,-45.07554 c 20.2765,-4.8142 38.4029,-15.01388 52.02989,-29.27709 13.10766,-13.71964 21.23669,-29.34003 25.79932,-49.57487 l 1.38759,-6.15385 V 256 147.38462 l -1.38759,-6.15385 C 446.69511,127.9517 441.34911,114.91853 435.0489,105.53846 422.46318,86.800203 404.18367,72.818655 383.14161,65.835838 368.26227,60.89812 379.77387,61.331571 257.03769,61.087594 l -109.73154,-0.218126 -7.64238,1.858888 C 118.92409,67.772957 103.67881,76.191556 89.52928,90.413138 75.271064,104.74396 67.072957,119.9318 62.59715,140.30769 l -1.55453,7.07693 -0.367464,54.30769 c -0.202105,29.86923 -0.201126,78.74615 0.0022,108.61538 0.360911,53.0253 0.401707,54.45301 1.727675,60.46154 6.999315,31.71691 25.6636,56.18235 53.513069,70.14577 10.01401,5.02091 21.14757,8.46074 30.81197,9.51967 2.56002,0.2805 53.25457,0.45131 112.65458,0.37956 99.88992,-0.12064 108.33608,-0.21023 112.47549,-1.19304 z"
   id="path132" /><path
   style="fill:#ffffff;stroke-width:0.615385"
   d="m 245.23077,376.87475 c -0.84615,-0.14479 -3.61539,-0.55975 -6.15385,-0.92215 -23.33607,-3.33149 -46.02362,-14.5088 -63.57058,-31.31885 -10.76681,-10.31466 -17.71542,-19.55705 -24.072,-32.01837 -8.6789,-17.01393 -12.66511,-33.86459 -12.66511,-53.53846 0,-11.32152 1.03715,-19.71605 3.71311,-30.05329 8.47088,-32.72306 32.00254,-61.40567 62.44074,-76.10867 53.97515,-26.0724 118.10973,-8.39081 150.85816,41.59085 37.114,56.64455 18.77329,133.05749 -40.08893,167.02262 -12.24708,7.06691 -24.28691,11.43329 -39.37373,14.27935 -4.7051,0.8876 -27.55323,1.67177 -31.08781,1.06697 z M 268,334.47914 c 8.3626,-1.28484 14.17702,-3.04582 21.38015,-6.47525 18.48458,-8.80055 32.34022,-24.02558 39.206,-43.08081 3.13014,-8.68735 4.22388,-15.38475 4.22089,-25.84616 -0.003,-10.44297 -0.7811,-15.34131 -3.95133,-24.87408 -8.49003,-25.52922 -30.93247,-44.84944 -58.39417,-50.27032 -6.12166,-1.2084 -21.99104,-1.05042 -28.30769,0.28182 -14.71877,3.1043 -27.13495,9.50157 -37.67239,19.41018 -30.59319,28.76752 -31.93989,77.64882 -2.97462,107.9698 17.36704,18.1799 41.98037,26.65103 66.49316,22.88482 z"
   id="path171" /><path
   style="fill:#ffffff;stroke-width:0.615385"
   d="M 373.64089,158.75762 C 366.13511,156.10513 360.75136,151.24758 357.28461,144 c -2.13779,-4.46925 -2.20769,-4.83946 -2.20769,-11.69231 0,-6.68586 0.10887,-7.30674 1.97013,-11.23601 2.2169,-4.68007 7.14333,-10.25624 11.1202,-12.58685 8.38324,-4.9129 19.77118,-5.06019 27.79392,-0.35948 19.68142,11.5318 18.65774,39.4685 -1.80732,49.32257 -4.21393,2.02903 -5.15066,2.23782 -10.76923,2.40034 -4.96656,0.14366 -6.84646,-0.0668 -9.74373,-1.09064 z"
   id="path210" /></svg>
