<?xml version="1.0" encoding="UTF-8" standalone="no"?>
<svg
   viewBox="0 0 774 1000.2"
   width="1935"
   height="2500"
   version="1.1"
   id="svg4"
   sodipodi:docname="pinterest.svg"
   inkscape:version="1.1.1 (3bf5ae0d25, 2021-09-20)"
   xmlns:inkscape="http://www.inkscape.org/namespaces/inkscape"
   xmlns:sodipodi="http://sodipodi.sourceforge.net/DTD/sodipodi-0.dtd"
   xmlns="http://www.w3.org/2000/svg"
   xmlns:svg="http://www.w3.org/2000/svg">
  <defs
     id="defs8" />
  <sodipodi:namedview
     id="namedview6"
     pagecolor="#505050"
     bordercolor="#eeeeee"
     borderopacity="1"
     inkscape:pageshadow="0"
     inkscape:pageopacity="0"
     inkscape:pagecheckerboard="0"
     showgrid="false"
     inkscape:zoom="0.3328"
     inkscape:cx="966.04567"
     inkscape:cy="1251.5024"
     inkscape:window-width="1920"
     inkscape:window-height="1017"
     inkscape:window-x="-8"
     inkscape:window-y="-8"
     inkscape:window-maximized="1"
     inkscape:current-layer="svg4" />
  <path
     d="M0 359c0-42 8.8-83.7 26.5-125s43-79.7 76-115 76.3-64 130-86S345.7 0 411 0c106 0 193 32.7 261 98s102 142.3 102 231c0 114-28.8 208.2-86.5 282.5S555.3 723 464 723c-30 0-58.2-7-84.5-21s-44.8-31-55.5-51l-40 158c-3.3 12.7-7.7 25.5-13 38.5S259.8 873 253.5 885c-6.3 12-12.7 23.3-19 34s-12.7 20.7-19 30-11.8 17.2-16.5 23.5-9 11.8-13 16.5l-6 8c-2 2.7-4.7 3.7-8 3s-5.3-2.7-6-6c0-.7-.5-5.3-1.5-14s-2-17.8-3-27.5-2-22.2-3-37.5-1.3-30.2-1-44.5 1.3-30.2 3-47.5 4.2-33.3 7.5-48c7.3-31.3 32-135.7 74-313-5.3-10.7-9.7-23.5-13-38.5s-5-27.2-5-36.5l-1-15c0-42.7 10.8-78.2 32.5-106.5S303.3 223 334 223c24.7 0 43.8 8.2 57.5 24.5S412 284.3 412 309c0 15.3-2.8 34.2-8.5 56.5s-13.2 48-22.5 77-16 52.5-20 70.5c-6.7 30-.8 56 17.5 78s42.8 33 73.5 33c52.7 0 96.2-29.8 130.5-89.5S634 402.7 634 318c0-64.7-21-117.5-63-158.5S470.3 98 395 98c-84 0-152.2 27-204.5 81S112 297.7 112 373c0 44.7 12.7 82.3 38 113 8.7 10 11.3 20.7 8 32-1.3 3.3-3.3 11-6 23s-4.7 19.7-6 23c-1.3 7.3-4.7 12.2-10 14.5s-11.3 2.2-18-.5c-39.3-16-68.8-43.5-88.5-82.5S0 411 0 359z"
     id="path2" />
  <path
     style="fill:#ffffff;stroke-width:3.00481"
     d="m 421.41806,2491.7368 c -4.49243,-5.033 -10.01106,-47.9184 -20.39679,-158.5036 -10.57013,-112.5491 -4.84366,-262.3093 13.84505,-362.0794 2.32178,-12.3948 46.36529,-200.9174 97.87449,-418.9392 85.87845,-363.4956 93.33521,-397.1707 89.82367,-405.649 -11.64813,-28.1237 -25.05072,-72.3252 -32.17226,-106.1037 -7.4778,-35.4682 -8.0991,-43.90562 -8.24562,-111.97632 -0.17187,-79.88095 2.64553,-100.87203 20.84418,-155.29676 30.5286,-91.29853 96.95246,-168.84735 169.84308,-198.28918 61.12972,-24.69141 137.69505,-19.71941 187.15361,12.15336 32.35309,20.84943 61.44393,59.93985 75.22063,101.07681 27.8194,83.06788 14.5584,168.30883 -65.6736,422.14659 -20.80421,65.8203 -32.05025,105.0154 -43.99309,153.3264 -21.35241,86.3744 -9.95998,151.3432 37.0655,211.3769 44.38975,56.6689 107.30679,85.0248 188.44089,84.9279 93.9526,-0.112 164.3758,-31.2882 237.7026,-105.2299 43.0064,-43.3671 80.3172,-97.9717 114.1154,-167.0087 68.8695,-140.6744 102.1595,-297.98604 102.0806,-482.38054 -0.049,-114.98921 -14.7653,-185.89732 -55.813,-268.93029 -69.352,-140.28807 -195.7183,-237.26184 -355.756,-273.00789 -153.4706,-34.27924 -335.67461,-22.62984 -469.49296,30.01751 -87.35103,34.36598 -158.80151,82.4555 -227.74192,153.28095 -88.46986,90.88891 -144.67957,188.5741 -174.28567,302.88597 -29.28967,113.09017 -30.70146,229.72361 -3.91196,323.18159 9.56367,33.3639 38.14147,91.9001 58.4948,119.8156 31.92413,43.7853 35.43877,49.6149 38.49012,63.8428 3.65706,17.0524 2.99465,20.7878 -18.62891,105.0473 -8.72887,34.0135 -18.30913,65.5642 -21.28945,70.1127 -7.62413,11.6359 -24.0832,17.8449 -41.75559,15.7519 -16.49958,-1.9541 -63.66141,-24.4052 -94.37705,-44.9276 C 144.40258,1352.5983 89.733603,1281.1766 51.565433,1183.7742 0.78964273,1054.198 -12.074644,885.16247 17.958903,742.1875 51.011635,584.83966 138.77938,423.85718 262.25145,294.10915 391.77323,158.00393 591.45983,57.797927 808.96725,19.758214 928.33594,-1.1180858 1078.716,-3.4351416 1197.4159,13.772998 c 157.1055,22.775884 306.7435,87.306842 426.6827,184.005662 37.8831,30.54259 103.5692,96.59663 134.9987,135.75499 92.9313,115.7839 150.6361,249.60466 168.4411,390.625 11.6402,92.19321 3.7814,250.90691 -18.0805,365.15105 -57.629,301.1519 -228.722,546.9584 -455.0026,653.6946 -123.3975,58.2064 -286.3032,78.2329 -401.5663,49.3657 -95.97713,-24.037 -189.2667,-84.0468 -230.65655,-148.3729 -7.53801,-11.7152 -12.92004,-17.5548 -13.84681,-15.024 -0.83384,2.2769 -24.59219,95.2669 -52.7964,206.6443 -28.20417,111.3774 -55.86911,216.2196 -61.47758,232.9828 -39.8976,119.2495 -136.40547,287.2659 -233.55508,406.6101 -14.30174,17.5691 -19.35045,21.7849 -26.08918,21.7849 -4.59565,0 -10.46782,-2.3663 -13.04934,-5.2584 z"
     id="path47"
     transform="matrix(0.40008,0,0,0.40008,-0.0774,0)" />
</svg>
